# xmcd CD database file
#
# Track frame offsets:
#	150
#	11661
#	26794
#	87834
#	140836
#	194508
#
# Disc length: 2989 seconds
#
# Revision: 1
# Processed by: cddbd v1.5.2PL0 Copyright (c) Steve Scherf et al.
# Submitted via: CDex 1.51
#
DISCID=500bab06
DTITLE=Henry Purcell - Oeuvres pour trompette
DYEAR=1900
DGENRE=Classique
TTITLE0=Trumpet Volontary  en ré mineur  (Robert Durand, Collegium Academicum de Genève)
TTITLE1=Trumpet Overture  (La Reine indienne)
TTITLE2=Abdelazer ou la Vengeance du Maure  (Denis Stevens, Orchestra of the Accademica Monteverdiana)
TTITLE3=Distressed Innocence
TTITLE4=Amphitryon ou les deux sosies
TTITLE5=Sonate pour trompette et cordes  en ré majeur  (Robert Durand, Collegium Academicum de Genève)
EXTD=
EXTT0=
EXTT1=
EXTT2=
EXTT3=
EXTT4=
EXTT5=
PLAYORDER=
